<?xml version="1.0" standalone="no"?><!DOCTYPE svg PUBLIC "-//W3C//DTD SVG 1.1//EN" "http://www.w3.org/Graphics/SVG/1.1/DTD/svg11.dtd"><svg t="1558509812897" class="icon" style="" viewBox="0 0 1024 1024" version="1.1" xmlns="http://www.w3.org/2000/svg" p-id="3590" xmlns:xlink="http://www.w3.org/1999/xlink" width="200" height="200"><defs><style type="text/css"></style></defs><path d="M741 618.1H405.3c-8.9 0-16.1-7.2-16.1-16.1s7.2-16.1 16.1-16.1H741c15 0 28.5-11 33.4-27.3l52.8-174.8c4.1-13.7 1.7-28.4-6.5-39.5-6.8-9.2-16.4-14.2-26.9-14.2H582.9c-8.9 0-16.1-7.2-16.1-16.1s7.2-16.1 16.1-16.1h210.9c20.7 0 39.9 9.9 52.7 27.3 14.3 19.2 18.6 44.6 11.5 68L805.2 568c-9 29.9-34.8 50.1-64.2 50.1z" fill="#d81e06" p-id="3591"></path><path d="M486.8 297.8h-65.3v-65.3c0-8.9-7.2-16.1-16.1-16.1s-16.1 7.2-16.1 16.1v65.3H324c-8.9 0-16.1 7.2-16.1 16.1S315.1 330 324 330h65.3v65.3c0 8.9 7.2 16.1 16.1 16.1s16.1-7.2 16.1-16.1V330h65.3c8.9 0 16.1-7.2 16.1-16.1s-7.2-16.1-16.1-16.1z" fill="#d81e06" p-id="3592"></path><path d="M727.2 676.5H366.8c-22.8 0-43.1-22.2-49.5-54.1l-67.4-335.2c-8.2-40.8-37.3-69.3-70.8-69.3h-40.4c-8.9 0-16.1 7.2-16.1 16.1s7.2 16.1 16.1 16.1h40.4c17.9 0 34 17.9 39.2 43.4l67.4 335.2c5.1 25.5 17.3 46.9 33.4 61.1-19.5 13.5-32.3 36.1-32.3 61.6 0 41.3 33.6 74.9 74.9 74.9 41.3 0 74.9-33.6 74.9-74.9 0-15.8-5-30.6-13.4-42.7h242.6c-8.4 12.1-13.4 26.8-13.4 42.7 0 41.3 33.6 74.9 74.9 74.9s74.9-33.6 74.9-74.9-33.7-74.9-75-74.9zM361.7 794c-23.5 0-42.7-19.1-42.7-42.7s19.1-42.7 42.7-42.7 42.7 19.1 42.7 42.7-19.2 42.7-42.7 42.7z m365.5 0c-23.5 0-42.7-19.1-42.7-42.7s19.1-42.7 42.7-42.7 42.7 19.1 42.7 42.7-19.1 42.7-42.7 42.7z" fill="#d81e06" p-id="3593"></path></svg>